<<<<<<< HEAD
<mxfile host="app.diagrams.net" modified="2021-08-08T19:17:46.805Z" agent="5.0 (Windows NT 10.0; Win64; x64) AppleWebKit/537.36 (KHTML, like Gecko) Chrome/92.0.4515.131 Safari/537.36" etag="zSMImnCCaoDQadMFWja6" version="14.9.5" type="github">
  <diagram id="wq-XRTfU4Y2B7C9Du99J" name="Page-1">
    <mxGraphModel dx="1865" dy="1725" grid="1" gridSize="10" guides="1" tooltips="1" connect="1" arrows="1" fold="1" page="1" pageScale="1" pageWidth="827" pageHeight="1169" background="#97D077" math="0" shadow="0">
      <root>
        <mxCell id="0" />
        <mxCell id="1" parent="0" />
        <mxCell id="iOZBX-VmQLaMs8w1UVqm-68" value="" style="edgeStyle=orthogonalEdgeStyle;rounded=0;orthogonalLoop=1;jettySize=auto;html=1;" parent="1" source="iOZBX-VmQLaMs8w1UVqm-64" target="iOZBX-VmQLaMs8w1UVqm-66" edge="1">
          <mxGeometry relative="1" as="geometry" />
        </mxCell>
        <mxCell id="iOZBX-VmQLaMs8w1UVqm-76" value="" style="edgeStyle=orthogonalEdgeStyle;rounded=0;orthogonalLoop=1;jettySize=auto;html=1;" parent="1" source="iOZBX-VmQLaMs8w1UVqm-64" target="iOZBX-VmQLaMs8w1UVqm-73" edge="1">
          <mxGeometry relative="1" as="geometry" />
        </mxCell>
        <mxCell id="iOZBX-VmQLaMs8w1UVqm-78" value="" style="edgeStyle=orthogonalEdgeStyle;rounded=0;orthogonalLoop=1;jettySize=auto;html=1;" parent="1" source="iOZBX-VmQLaMs8w1UVqm-64" target="iOZBX-VmQLaMs8w1UVqm-72" edge="1">
          <mxGeometry relative="1" as="geometry" />
        </mxCell>
        <mxCell id="iOZBX-VmQLaMs8w1UVqm-81" value="" style="edgeStyle=none;rounded=0;orthogonalLoop=1;jettySize=auto;html=1;" parent="1" source="iOZBX-VmQLaMs8w1UVqm-64" target="iOZBX-VmQLaMs8w1UVqm-80" edge="1">
          <mxGeometry relative="1" as="geometry" />
        </mxCell>
        <mxCell id="iOZBX-VmQLaMs8w1UVqm-64" value="board" style="whiteSpace=wrap;html=1;align=center;" parent="1" vertex="1">
          <mxGeometry x="360" y="-1090" width="100" height="40" as="geometry" />
        </mxCell>
        <mxCell id="iOZBX-VmQLaMs8w1UVqm-66" value="&lt;span style=&quot;border-bottom: 1px dotted&quot;&gt;id&lt;/span&gt;" style="ellipse;whiteSpace=wrap;html=1;align=center;" parent="1" vertex="1">
          <mxGeometry x="520" y="-1090" width="100" height="40" as="geometry" />
        </mxCell>
        <mxCell id="iOZBX-VmQLaMs8w1UVqm-72" value="name" style="ellipse;whiteSpace=wrap;html=1;align=center;" parent="1" vertex="1">
          <mxGeometry x="200" y="-1090" width="100" height="40" as="geometry" />
        </mxCell>
        <mxCell id="iOZBX-VmQLaMs8w1UVqm-73" value="role" style="ellipse;whiteSpace=wrap;html=1;align=center;" parent="1" vertex="1">
          <mxGeometry x="360" y="-1160" width="100" height="40" as="geometry" />
        </mxCell>
        <mxCell id="iOZBX-VmQLaMs8w1UVqm-83" value="" style="edgeStyle=none;rounded=0;orthogonalLoop=1;jettySize=auto;html=1;" parent="1" source="iOZBX-VmQLaMs8w1UVqm-80" target="iOZBX-VmQLaMs8w1UVqm-82" edge="1">
          <mxGeometry relative="1" as="geometry" />
        </mxCell>
        <mxCell id="iOZBX-VmQLaMs8w1UVqm-80" value="tells the tasks" style="shape=rhombus;perimeter=rhombusPerimeter;whiteSpace=wrap;html=1;align=center;" parent="1" vertex="1">
          <mxGeometry x="350" y="-1000" width="120" height="60" as="geometry" />
        </mxCell>
        <mxCell id="iOZBX-VmQLaMs8w1UVqm-86" value="" style="edgeStyle=none;rounded=0;orthogonalLoop=1;jettySize=auto;html=1;" parent="1" source="iOZBX-VmQLaMs8w1UVqm-82" target="iOZBX-VmQLaMs8w1UVqm-85" edge="1">
          <mxGeometry relative="1" as="geometry" />
        </mxCell>
        <mxCell id="iOZBX-VmQLaMs8w1UVqm-87" value="" style="edgeStyle=none;rounded=0;orthogonalLoop=1;jettySize=auto;html=1;" parent="1" source="iOZBX-VmQLaMs8w1UVqm-82" target="iOZBX-VmQLaMs8w1UVqm-84" edge="1">
          <mxGeometry relative="1" as="geometry" />
        </mxCell>
        <mxCell id="iOZBX-VmQLaMs8w1UVqm-95" value="" style="edgeStyle=orthogonalEdgeStyle;rounded=0;orthogonalLoop=1;jettySize=auto;html=1;" parent="1" source="iOZBX-VmQLaMs8w1UVqm-82" target="iOZBX-VmQLaMs8w1UVqm-89" edge="1">
          <mxGeometry relative="1" as="geometry">
            <Array as="points">
              <mxPoint x="410" y="-840" />
              <mxPoint x="180" y="-840" />
            </Array>
          </mxGeometry>
        </mxCell>
        <mxCell id="iOZBX-VmQLaMs8w1UVqm-82" value="ceo" style="whiteSpace=wrap;html=1;align=center;" parent="1" vertex="1">
          <mxGeometry x="360" y="-900" width="100" height="40" as="geometry" />
        </mxCell>
        <mxCell id="iOZBX-VmQLaMs8w1UVqm-84" value="id" style="ellipse;whiteSpace=wrap;html=1;align=center;fontStyle=4;" parent="1" vertex="1">
          <mxGeometry x="520" y="-930" width="100" height="40" as="geometry" />
        </mxCell>
        <mxCell id="iOZBX-VmQLaMs8w1UVqm-85" value="name" style="ellipse;whiteSpace=wrap;html=1;align=center;" parent="1" vertex="1">
          <mxGeometry x="200" y="-930" width="100" height="40" as="geometry" />
        </mxCell>
        <mxCell id="iOZBX-VmQLaMs8w1UVqm-103" value="" style="edgeStyle=orthogonalEdgeStyle;rounded=0;orthogonalLoop=1;jettySize=auto;html=1;" parent="1" source="iOZBX-VmQLaMs8w1UVqm-82" target="iOZBX-VmQLaMs8w1UVqm-88" edge="1">
          <mxGeometry relative="1" as="geometry" />
        </mxCell>
        <mxCell id="iOZBX-VmQLaMs8w1UVqm-105" value="" style="edgeStyle=orthogonalEdgeStyle;rounded=0;orthogonalLoop=1;jettySize=auto;html=1;" parent="1" source="iOZBX-VmQLaMs8w1UVqm-88" target="iOZBX-VmQLaMs8w1UVqm-104" edge="1">
          <mxGeometry relative="1" as="geometry" />
        </mxCell>
        <mxCell id="iOZBX-VmQLaMs8w1UVqm-88" value="assigns the tasks to &lt;br&gt;c-level members" style="shape=rhombus;perimeter=rhombusPerimeter;whiteSpace=wrap;html=1;align=center;" parent="1" vertex="1">
          <mxGeometry x="571" y="-820" width="159" height="130" as="geometry" />
        </mxCell>
        <mxCell id="iOZBX-VmQLaMs8w1UVqm-96" value="" style="edgeStyle=orthogonalEdgeStyle;rounded=0;orthogonalLoop=1;jettySize=auto;html=1;" parent="1" source="iOZBX-VmQLaMs8w1UVqm-89" target="iOZBX-VmQLaMs8w1UVqm-90" edge="1">
          <mxGeometry relative="1" as="geometry" />
        </mxCell>
        <mxCell id="iOZBX-VmQLaMs8w1UVqm-89" value="lists out the tasks" style="shape=rhombus;perimeter=rhombusPerimeter;whiteSpace=wrap;html=1;align=center;" parent="1" vertex="1">
          <mxGeometry x="120" y="-770" width="120" height="50" as="geometry" />
        </mxCell>
        <mxCell id="iOZBX-VmQLaMs8w1UVqm-92" value="" style="edgeStyle=none;rounded=0;orthogonalLoop=1;jettySize=auto;html=1;" parent="1" source="iOZBX-VmQLaMs8w1UVqm-90" target="iOZBX-VmQLaMs8w1UVqm-91" edge="1">
          <mxGeometry relative="1" as="geometry" />
        </mxCell>
        <mxCell id="iOZBX-VmQLaMs8w1UVqm-94" value="" style="edgeStyle=none;rounded=0;orthogonalLoop=1;jettySize=auto;html=1;" parent="1" source="iOZBX-VmQLaMs8w1UVqm-90" target="iOZBX-VmQLaMs8w1UVqm-93" edge="1">
          <mxGeometry relative="1" as="geometry" />
        </mxCell>
        <mxCell id="iOZBX-VmQLaMs8w1UVqm-98" value="" style="rounded=0;orthogonalLoop=1;jettySize=auto;html=1;" parent="1" source="iOZBX-VmQLaMs8w1UVqm-90" target="iOZBX-VmQLaMs8w1UVqm-97" edge="1">
          <mxGeometry relative="1" as="geometry" />
        </mxCell>
        <mxCell id="iOZBX-VmQLaMs8w1UVqm-100" value="" style="edgeStyle=none;rounded=0;orthogonalLoop=1;jettySize=auto;html=1;" parent="1" source="iOZBX-VmQLaMs8w1UVqm-90" target="iOZBX-VmQLaMs8w1UVqm-97" edge="1">
          <mxGeometry relative="1" as="geometry" />
        </mxCell>
        <mxCell id="iOZBX-VmQLaMs8w1UVqm-101" value="" style="edgeStyle=none;rounded=0;orthogonalLoop=1;jettySize=auto;html=1;" parent="1" source="iOZBX-VmQLaMs8w1UVqm-90" target="iOZBX-VmQLaMs8w1UVqm-99" edge="1">
          <mxGeometry relative="1" as="geometry" />
        </mxCell>
        <mxCell id="iOZBX-VmQLaMs8w1UVqm-116" value="" style="edgeStyle=none;rounded=0;orthogonalLoop=1;jettySize=auto;html=1;" parent="1" source="iOZBX-VmQLaMs8w1UVqm-90" target="iOZBX-VmQLaMs8w1UVqm-115" edge="1">
          <mxGeometry relative="1" as="geometry" />
        </mxCell>
        <mxCell id="iOZBX-VmQLaMs8w1UVqm-90" value="tasks" style="whiteSpace=wrap;html=1;align=center;" parent="1" vertex="1">
          <mxGeometry x="130" y="-644" width="100" height="40" as="geometry" />
        </mxCell>
        <mxCell id="iOZBX-VmQLaMs8w1UVqm-91" value="task_id" style="ellipse;whiteSpace=wrap;html=1;align=center;fontStyle=4;" parent="1" vertex="1">
          <mxGeometry x="260" y="-700" width="100" height="40" as="geometry" />
        </mxCell>
        <mxCell id="iOZBX-VmQLaMs8w1UVqm-93" value="task_name" style="ellipse;whiteSpace=wrap;html=1;align=center;" parent="1" vertex="1">
          <mxGeometry x="290" y="-604" width="100" height="40" as="geometry" />
        </mxCell>
        <mxCell id="iOZBX-VmQLaMs8w1UVqm-97" value="dept" style="ellipse;whiteSpace=wrap;html=1;align=center;" parent="1" vertex="1">
          <mxGeometry x="-20" y="-610" width="100" height="40" as="geometry" />
        </mxCell>
        <mxCell id="iOZBX-VmQLaMs8w1UVqm-99" value="priority" style="ellipse;whiteSpace=wrap;html=1;align=center;" parent="1" vertex="1">
          <mxGeometry x="-10" y="-700" width="100" height="40" as="geometry" />
        </mxCell>
        <mxCell id="iOZBX-VmQLaMs8w1UVqm-111" value="" style="rounded=0;orthogonalLoop=1;jettySize=auto;html=1;" parent="1" source="iOZBX-VmQLaMs8w1UVqm-104" target="iOZBX-VmQLaMs8w1UVqm-107" edge="1">
          <mxGeometry relative="1" as="geometry" />
        </mxCell>
        <mxCell id="iOZBX-VmQLaMs8w1UVqm-112" value="" style="edgeStyle=none;rounded=0;orthogonalLoop=1;jettySize=auto;html=1;" parent="1" source="iOZBX-VmQLaMs8w1UVqm-104" target="iOZBX-VmQLaMs8w1UVqm-108" edge="1">
          <mxGeometry relative="1" as="geometry" />
        </mxCell>
        <mxCell id="iOZBX-VmQLaMs8w1UVqm-113" value="" style="edgeStyle=none;rounded=0;orthogonalLoop=1;jettySize=auto;html=1;" parent="1" source="iOZBX-VmQLaMs8w1UVqm-104" target="iOZBX-VmQLaMs8w1UVqm-106" edge="1">
          <mxGeometry relative="1" as="geometry" />
        </mxCell>
        <mxCell id="iOZBX-VmQLaMs8w1UVqm-114" value="" style="edgeStyle=none;rounded=0;orthogonalLoop=1;jettySize=auto;html=1;" parent="1" source="iOZBX-VmQLaMs8w1UVqm-104" target="iOZBX-VmQLaMs8w1UVqm-109" edge="1">
          <mxGeometry relative="1" as="geometry" />
        </mxCell>
        <mxCell id="iOZBX-VmQLaMs8w1UVqm-118" value="" style="edgeStyle=none;rounded=0;orthogonalLoop=1;jettySize=auto;html=1;" parent="1" source="iOZBX-VmQLaMs8w1UVqm-104" target="iOZBX-VmQLaMs8w1UVqm-117" edge="1">
          <mxGeometry relative="1" as="geometry" />
        </mxCell>
        <mxCell id="iOZBX-VmQLaMs8w1UVqm-120" value="" style="edgeStyle=orthogonalEdgeStyle;rounded=0;orthogonalLoop=1;jettySize=auto;html=1;exitX=0.5;exitY=1;exitDx=0;exitDy=0;" parent="1" source="iOZBX-VmQLaMs8w1UVqm-104" target="iOZBX-VmQLaMs8w1UVqm-119" edge="1">
          <mxGeometry relative="1" as="geometry" />
        </mxCell>
        <mxCell id="iOZBX-VmQLaMs8w1UVqm-135" value="" style="edgeStyle=orthogonalEdgeStyle;rounded=0;orthogonalLoop=1;jettySize=auto;html=1;" parent="1" source="iOZBX-VmQLaMs8w1UVqm-104" target="iOZBX-VmQLaMs8w1UVqm-134" edge="1">
          <mxGeometry relative="1" as="geometry">
            <Array as="points">
              <mxPoint x="630" y="-490" />
              <mxPoint x="900" y="-490" />
            </Array>
          </mxGeometry>
        </mxCell>
        <mxCell id="iOZBX-VmQLaMs8w1UVqm-104" value="c-level members" style="whiteSpace=wrap;html=1;align=center;" parent="1" vertex="1">
          <mxGeometry x="580" y="-630" width="100" height="40" as="geometry" />
        </mxCell>
        <mxCell id="iOZBX-VmQLaMs8w1UVqm-106" value="task_id" style="ellipse;whiteSpace=wrap;html=1;align=center;fontStyle=4;" parent="1" vertex="1">
          <mxGeometry x="727" y="-690" width="100" height="40" as="geometry" />
        </mxCell>
        <mxCell id="iOZBX-VmQLaMs8w1UVqm-107" value="id" style="ellipse;whiteSpace=wrap;html=1;align=center;fontStyle=4;" parent="1" vertex="1">
          <mxGeometry x="450" y="-710" width="100" height="40" as="geometry" />
        </mxCell>
        <mxCell id="iOZBX-VmQLaMs8w1UVqm-108" value="key filters" style="ellipse;whiteSpace=wrap;html=1;align=center;" parent="1" vertex="1">
          <mxGeometry x="450" y="-584" width="100" height="40" as="geometry" />
        </mxCell>
        <mxCell id="iOZBX-VmQLaMs8w1UVqm-109" value="notes" style="ellipse;whiteSpace=wrap;html=1;align=center;" parent="1" vertex="1">
          <mxGeometry x="810" y="-630" width="100" height="40" as="geometry" />
        </mxCell>
        <mxCell id="iOZBX-VmQLaMs8w1UVqm-115" value="assigned_to_id" style="ellipse;whiteSpace=wrap;html=1;align=center;fontStyle=0;" parent="1" vertex="1">
          <mxGeometry x="190" y="-550" width="100" height="40" as="geometry" />
        </mxCell>
        <mxCell id="iOZBX-VmQLaMs8w1UVqm-117" value="progress" style="ellipse;whiteSpace=wrap;html=1;align=center;strokeColor=#000000;" parent="1" vertex="1">
          <mxGeometry x="790" y="-560" width="100" height="40" as="geometry" />
        </mxCell>
        <mxCell id="iOZBX-VmQLaMs8w1UVqm-122" value="" style="edgeStyle=none;rounded=0;orthogonalLoop=1;jettySize=auto;html=1;" parent="1" source="iOZBX-VmQLaMs8w1UVqm-119" target="iOZBX-VmQLaMs8w1UVqm-121" edge="1">
          <mxGeometry relative="1" as="geometry" />
        </mxCell>
        <mxCell id="iOZBX-VmQLaMs8w1UVqm-119" value="divides tasks &lt;br&gt;into projects" style="shape=rhombus;perimeter=rhombusPerimeter;whiteSpace=wrap;html=1;align=center;strokeColor=#000000;" parent="1" vertex="1">
          <mxGeometry x="401" y="-440" width="119" height="70" as="geometry" />
        </mxCell>
        <mxCell id="iOZBX-VmQLaMs8w1UVqm-129" value="" style="rounded=0;orthogonalLoop=1;jettySize=auto;html=1;" parent="1" source="iOZBX-VmQLaMs8w1UVqm-121" target="iOZBX-VmQLaMs8w1UVqm-126" edge="1">
          <mxGeometry relative="1" as="geometry" />
        </mxCell>
        <mxCell id="iOZBX-VmQLaMs8w1UVqm-131" value="" style="edgeStyle=none;rounded=0;orthogonalLoop=1;jettySize=auto;html=1;" parent="1" source="iOZBX-VmQLaMs8w1UVqm-121" target="iOZBX-VmQLaMs8w1UVqm-125" edge="1">
          <mxGeometry relative="1" as="geometry" />
        </mxCell>
        <mxCell id="iOZBX-VmQLaMs8w1UVqm-132" value="" style="edgeStyle=none;rounded=0;orthogonalLoop=1;jettySize=auto;html=1;" parent="1" source="iOZBX-VmQLaMs8w1UVqm-121" target="iOZBX-VmQLaMs8w1UVqm-124" edge="1">
          <mxGeometry relative="1" as="geometry" />
        </mxCell>
        <mxCell id="iOZBX-VmQLaMs8w1UVqm-133" value="" style="edgeStyle=none;rounded=0;orthogonalLoop=1;jettySize=auto;html=1;" parent="1" source="iOZBX-VmQLaMs8w1UVqm-121" target="iOZBX-VmQLaMs8w1UVqm-123" edge="1">
          <mxGeometry relative="1" as="geometry" />
        </mxCell>
        <mxCell id="iOZBX-VmQLaMs8w1UVqm-205" style="edgeStyle=none;rounded=0;orthogonalLoop=1;jettySize=auto;html=1;exitX=0.25;exitY=1;exitDx=0;exitDy=0;entryX=0;entryY=0;entryDx=0;entryDy=0;" parent="1" source="iOZBX-VmQLaMs8w1UVqm-121" target="iOZBX-VmQLaMs8w1UVqm-203" edge="1">
          <mxGeometry relative="1" as="geometry" />
        </mxCell>
        <mxCell id="iOZBX-VmQLaMs8w1UVqm-121" value="projects" style="whiteSpace=wrap;html=1;" parent="1" vertex="1">
          <mxGeometry x="401" y="-305" width="120" height="60" as="geometry" />
        </mxCell>
        <mxCell id="iOZBX-VmQLaMs8w1UVqm-123" value="project_id" style="ellipse;whiteSpace=wrap;html=1;align=center;fontStyle=4;strokeColor=#000000;" parent="1" vertex="1">
          <mxGeometry x="270" y="-380" width="100" height="40" as="geometry" />
        </mxCell>
        <mxCell id="iOZBX-VmQLaMs8w1UVqm-124" value="project_name" style="ellipse;whiteSpace=wrap;html=1;align=center;strokeColor=#000000;" parent="1" vertex="1">
          <mxGeometry x="200" y="-295" width="100" height="40" as="geometry" />
        </mxCell>
        <mxCell id="iOZBX-VmQLaMs8w1UVqm-125" value="dept" style="ellipse;whiteSpace=wrap;html=1;align=center;strokeColor=#000000;" parent="1" vertex="1">
          <mxGeometry x="240" y="-215" width="100" height="40" as="geometry" />
        </mxCell>
        <mxCell id="iOZBX-VmQLaMs8w1UVqm-126" value="task_id" style="ellipse;whiteSpace=wrap;html=1;align=center;strokeColor=#000000;" parent="1" vertex="1">
          <mxGeometry x="580" y="-255" width="100" height="40" as="geometry" />
        </mxCell>
        <mxCell id="iOZBX-VmQLaMs8w1UVqm-130" style="edgeStyle=none;rounded=0;orthogonalLoop=1;jettySize=auto;html=1;exitX=1;exitY=0;exitDx=0;exitDy=0;entryX=0;entryY=1;entryDx=0;entryDy=0;" parent="1" source="iOZBX-VmQLaMs8w1UVqm-121" target="iOZBX-VmQLaMs8w1UVqm-127" edge="1">
          <mxGeometry relative="1" as="geometry" />
        </mxCell>
        <mxCell id="iOZBX-VmQLaMs8w1UVqm-127" value="assigned_to_id" style="ellipse;whiteSpace=wrap;html=1;align=center;strokeColor=#000000;" parent="1" vertex="1">
          <mxGeometry x="550" y="-370" width="100" height="40" as="geometry" />
        </mxCell>
        <mxCell id="iOZBX-VmQLaMs8w1UVqm-137" value="" style="edgeStyle=orthogonalEdgeStyle;rounded=0;orthogonalLoop=1;jettySize=auto;html=1;" parent="1" source="iOZBX-VmQLaMs8w1UVqm-134" target="iOZBX-VmQLaMs8w1UVqm-136" edge="1">
          <mxGeometry relative="1" as="geometry" />
        </mxCell>
        <mxCell id="iOZBX-VmQLaMs8w1UVqm-134" value="assigns the projects to dept heads" style="rhombus;whiteSpace=wrap;html=1;" parent="1" vertex="1">
          <mxGeometry x="830" y="-470" width="140" height="100" as="geometry" />
        </mxCell>
        <mxCell id="iOZBX-VmQLaMs8w1UVqm-144" style="rounded=0;orthogonalLoop=1;jettySize=auto;html=1;exitX=0.25;exitY=0;exitDx=0;exitDy=0;" parent="1" source="iOZBX-VmQLaMs8w1UVqm-136" target="iOZBX-VmQLaMs8w1UVqm-143" edge="1">
          <mxGeometry relative="1" as="geometry" />
        </mxCell>
        <mxCell id="iOZBX-VmQLaMs8w1UVqm-145" style="edgeStyle=none;rounded=0;orthogonalLoop=1;jettySize=auto;html=1;exitX=1;exitY=0;exitDx=0;exitDy=0;" parent="1" source="iOZBX-VmQLaMs8w1UVqm-136" target="iOZBX-VmQLaMs8w1UVqm-138" edge="1">
          <mxGeometry relative="1" as="geometry" />
        </mxCell>
        <mxCell id="iOZBX-VmQLaMs8w1UVqm-146" style="edgeStyle=none;rounded=0;orthogonalLoop=1;jettySize=auto;html=1;exitX=1;exitY=0.5;exitDx=0;exitDy=0;" parent="1" source="iOZBX-VmQLaMs8w1UVqm-136" target="iOZBX-VmQLaMs8w1UVqm-139" edge="1">
          <mxGeometry relative="1" as="geometry" />
        </mxCell>
        <mxCell id="iOZBX-VmQLaMs8w1UVqm-147" style="edgeStyle=none;rounded=0;orthogonalLoop=1;jettySize=auto;html=1;exitX=1;exitY=1;exitDx=0;exitDy=0;" parent="1" source="iOZBX-VmQLaMs8w1UVqm-136" target="iOZBX-VmQLaMs8w1UVqm-140" edge="1">
          <mxGeometry relative="1" as="geometry" />
        </mxCell>
        <mxCell id="iOZBX-VmQLaMs8w1UVqm-148" style="edgeStyle=none;rounded=0;orthogonalLoop=1;jettySize=auto;html=1;exitX=0.25;exitY=1;exitDx=0;exitDy=0;" parent="1" source="iOZBX-VmQLaMs8w1UVqm-136" target="iOZBX-VmQLaMs8w1UVqm-141" edge="1">
          <mxGeometry relative="1" as="geometry" />
        </mxCell>
        <mxCell id="iOZBX-VmQLaMs8w1UVqm-149" style="edgeStyle=none;rounded=0;orthogonalLoop=1;jettySize=auto;html=1;exitX=0;exitY=0.5;exitDx=0;exitDy=0;" parent="1" source="iOZBX-VmQLaMs8w1UVqm-136" target="iOZBX-VmQLaMs8w1UVqm-142" edge="1">
          <mxGeometry relative="1" as="geometry" />
        </mxCell>
        <mxCell id="iOZBX-VmQLaMs8w1UVqm-151" value="" style="edgeStyle=orthogonalEdgeStyle;rounded=0;orthogonalLoop=1;jettySize=auto;html=1;" parent="1" source="iOZBX-VmQLaMs8w1UVqm-136" target="iOZBX-VmQLaMs8w1UVqm-150" edge="1">
          <mxGeometry relative="1" as="geometry">
            <Array as="points">
              <mxPoint x="890" y="-5" />
            </Array>
          </mxGeometry>
        </mxCell>
        <mxCell id="iOZBX-VmQLaMs8w1UVqm-162" value="" style="edgeStyle=orthogonalEdgeStyle;rounded=0;orthogonalLoop=1;jettySize=auto;html=1;" parent="1" source="iOZBX-VmQLaMs8w1UVqm-136" target="iOZBX-VmQLaMs8w1UVqm-161" edge="1">
          <mxGeometry relative="1" as="geometry">
            <Array as="points">
              <mxPoint x="920" y="100" />
            </Array>
          </mxGeometry>
        </mxCell>
        <mxCell id="iOZBX-VmQLaMs8w1UVqm-136" value="dept heads" style="whiteSpace=wrap;html=1;" parent="1" vertex="1">
          <mxGeometry x="840" y="-275" width="120" height="60" as="geometry" />
        </mxCell>
        <mxCell id="iOZBX-VmQLaMs8w1UVqm-138" value="id" style="ellipse;whiteSpace=wrap;html=1;align=center;fontStyle=4;strokeColor=#000000;" parent="1" vertex="1">
          <mxGeometry x="1000" y="-330" width="100" height="40" as="geometry" />
        </mxCell>
        <mxCell id="iOZBX-VmQLaMs8w1UVqm-139" value="name" style="ellipse;whiteSpace=wrap;html=1;align=center;strokeColor=#000000;" parent="1" vertex="1">
          <mxGeometry x="1020" y="-245" width="100" height="40" as="geometry" />
        </mxCell>
        <mxCell id="iOZBX-VmQLaMs8w1UVqm-140" value="dept" style="ellipse;whiteSpace=wrap;html=1;align=center;strokeColor=#000000;" parent="1" vertex="1">
          <mxGeometry x="980" y="-180" width="100" height="40" as="geometry" />
        </mxCell>
        <mxCell id="iOZBX-VmQLaMs8w1UVqm-141" value="project_id" style="ellipse;whiteSpace=wrap;html=1;align=center;strokeColor=#000000;" parent="1" vertex="1">
          <mxGeometry x="740" y="-190" width="100" height="40" as="geometry" />
        </mxCell>
        <mxCell id="iOZBX-VmQLaMs8w1UVqm-142" value="reports_to_id" style="ellipse;whiteSpace=wrap;html=1;align=center;strokeColor=#000000;" parent="1" vertex="1">
          <mxGeometry x="710" y="-255" width="100" height="40" as="geometry" />
        </mxCell>
        <mxCell id="iOZBX-VmQLaMs8w1UVqm-143" value="progress" style="ellipse;whiteSpace=wrap;html=1;align=center;strokeColor=#000000;" parent="1" vertex="1">
          <mxGeometry x="750" y="-345" width="100" height="40" as="geometry" />
        </mxCell>
        <mxCell id="iOZBX-VmQLaMs8w1UVqm-153" value="" style="edgeStyle=orthogonalEdgeStyle;rounded=0;orthogonalLoop=1;jettySize=auto;html=1;" parent="1" source="iOZBX-VmQLaMs8w1UVqm-150" target="iOZBX-VmQLaMs8w1UVqm-152" edge="1">
          <mxGeometry relative="1" as="geometry" />
        </mxCell>
        <mxCell id="iOZBX-VmQLaMs8w1UVqm-150" value="dividing projects to project_tasks" style="rhombus;whiteSpace=wrap;html=1;" parent="1" vertex="1">
          <mxGeometry x="590" y="-70" width="150" height="130" as="geometry" />
        </mxCell>
        <mxCell id="iOZBX-VmQLaMs8w1UVqm-158" style="rounded=0;orthogonalLoop=1;jettySize=auto;html=1;exitX=1;exitY=0.25;exitDx=0;exitDy=0;" parent="1" source="iOZBX-VmQLaMs8w1UVqm-152" target="iOZBX-VmQLaMs8w1UVqm-154" edge="1">
          <mxGeometry relative="1" as="geometry" />
        </mxCell>
        <mxCell id="iOZBX-VmQLaMs8w1UVqm-159" style="edgeStyle=none;rounded=0;orthogonalLoop=1;jettySize=auto;html=1;exitX=0.5;exitY=1;exitDx=0;exitDy=0;" parent="1" source="iOZBX-VmQLaMs8w1UVqm-152" target="iOZBX-VmQLaMs8w1UVqm-156" edge="1">
          <mxGeometry relative="1" as="geometry" />
        </mxCell>
        <mxCell id="iOZBX-VmQLaMs8w1UVqm-160" style="edgeStyle=none;rounded=0;orthogonalLoop=1;jettySize=auto;html=1;exitX=0;exitY=0.25;exitDx=0;exitDy=0;" parent="1" source="iOZBX-VmQLaMs8w1UVqm-152" target="iOZBX-VmQLaMs8w1UVqm-155" edge="1">
          <mxGeometry relative="1" as="geometry" />
        </mxCell>
        <mxCell id="iOZBX-VmQLaMs8w1UVqm-152" value="project_tasks" style="whiteSpace=wrap;html=1;" parent="1" vertex="1">
          <mxGeometry x="605" y="190" width="120" height="60" as="geometry" />
        </mxCell>
        <mxCell id="iOZBX-VmQLaMs8w1UVqm-154" value="project_task_id" style="ellipse;whiteSpace=wrap;html=1;align=center;fontStyle=4;strokeColor=#000000;" parent="1" vertex="1">
          <mxGeometry x="780" y="220" width="140" height="50" as="geometry" />
        </mxCell>
        <mxCell id="iOZBX-VmQLaMs8w1UVqm-155" value="project_id" style="ellipse;whiteSpace=wrap;html=1;align=center;strokeColor=#000000;" parent="1" vertex="1">
          <mxGeometry x="414" y="190" width="136" height="60" as="geometry" />
        </mxCell>
        <mxCell id="iOZBX-VmQLaMs8w1UVqm-156" value="project_task_name" style="ellipse;whiteSpace=wrap;html=1;align=center;strokeColor=#000000;" parent="1" vertex="1">
          <mxGeometry x="600" y="280" width="130" height="60" as="geometry" />
        </mxCell>
        <mxCell id="iOZBX-VmQLaMs8w1UVqm-164" value="" style="edgeStyle=orthogonalEdgeStyle;rounded=0;orthogonalLoop=1;jettySize=auto;html=1;" parent="1" source="iOZBX-VmQLaMs8w1UVqm-161" target="iOZBX-VmQLaMs8w1UVqm-163" edge="1">
          <mxGeometry relative="1" as="geometry" />
        </mxCell>
        <mxCell id="iOZBX-VmQLaMs8w1UVqm-161" value="assigning project&lt;br&gt;&amp;nbsp;tasks to managers" style="rhombus;whiteSpace=wrap;html=1;" parent="1" vertex="1">
          <mxGeometry x="1040" y="20" width="140" height="160" as="geometry" />
        </mxCell>
        <mxCell id="iOZBX-VmQLaMs8w1UVqm-185" value="" style="edgeStyle=none;rounded=0;orthogonalLoop=1;jettySize=auto;html=1;" parent="1" source="iOZBX-VmQLaMs8w1UVqm-163" target="iOZBX-VmQLaMs8w1UVqm-184" edge="1">
          <mxGeometry relative="1" as="geometry" />
        </mxCell>
        <mxCell id="iOZBX-VmQLaMs8w1UVqm-163" value="managers" style="whiteSpace=wrap;html=1;" parent="1" vertex="1">
          <mxGeometry x="1170" y="320" width="120" height="60" as="geometry" />
        </mxCell>
        <mxCell id="iOZBX-VmQLaMs8w1UVqm-176" style="rounded=0;orthogonalLoop=1;jettySize=auto;html=1;exitX=0;exitY=0.25;exitDx=0;exitDy=0;entryX=1;entryY=1;entryDx=0;entryDy=0;" parent="1" source="iOZBX-VmQLaMs8w1UVqm-163" target="iOZBX-VmQLaMs8w1UVqm-165" edge="1">
          <mxGeometry relative="1" as="geometry" />
        </mxCell>
        <mxCell id="iOZBX-VmQLaMs8w1UVqm-165" value="id" style="ellipse;whiteSpace=wrap;html=1;align=center;fontStyle=4;strokeColor=#000000;" parent="1" vertex="1">
          <mxGeometry x="1060" y="260" width="100" height="40" as="geometry" />
        </mxCell>
        <mxCell id="iOZBX-VmQLaMs8w1UVqm-177" style="edgeStyle=none;rounded=0;orthogonalLoop=1;jettySize=auto;html=1;exitX=0;exitY=0.75;exitDx=0;exitDy=0;entryX=1;entryY=1;entryDx=0;entryDy=0;" parent="1" source="iOZBX-VmQLaMs8w1UVqm-163" target="iOZBX-VmQLaMs8w1UVqm-166" edge="1">
          <mxGeometry relative="1" as="geometry" />
        </mxCell>
        <mxCell id="iOZBX-VmQLaMs8w1UVqm-166" value="name" style="ellipse;whiteSpace=wrap;html=1;align=center;strokeColor=#000000;" parent="1" vertex="1">
          <mxGeometry x="1010" y="310" width="100" height="40" as="geometry" />
        </mxCell>
        <mxCell id="iOZBX-VmQLaMs8w1UVqm-178" style="edgeStyle=none;rounded=0;orthogonalLoop=1;jettySize=auto;html=1;exitX=1;exitY=0;exitDx=0;exitDy=0;entryX=1;entryY=0;entryDx=0;entryDy=0;" parent="1" target="iOZBX-VmQLaMs8w1UVqm-167" edge="1">
          <mxGeometry relative="1" as="geometry">
            <mxPoint x="1170" y="370.0000000000002" as="sourcePoint" />
          </mxGeometry>
        </mxCell>
        <mxCell id="iOZBX-VmQLaMs8w1UVqm-167" value="project_name" style="ellipse;whiteSpace=wrap;html=1;align=center;strokeColor=#000000;" parent="1" vertex="1">
          <mxGeometry x="1000" y="370" width="100" height="40" as="geometry" />
        </mxCell>
        <mxCell id="iOZBX-VmQLaMs8w1UVqm-182" style="edgeStyle=none;rounded=0;orthogonalLoop=1;jettySize=auto;html=1;exitX=1.017;exitY=0.35;exitDx=0;exitDy=0;entryX=0;entryY=0.5;entryDx=0;entryDy=0;exitPerimeter=0;" parent="1" source="iOZBX-VmQLaMs8w1UVqm-163" target="iOZBX-VmQLaMs8w1UVqm-168" edge="1">
          <mxGeometry relative="1" as="geometry" />
        </mxCell>
        <mxCell id="iOZBX-VmQLaMs8w1UVqm-168" value="project_id" style="ellipse;whiteSpace=wrap;html=1;align=center;strokeColor=#000000;" parent="1" vertex="1">
          <mxGeometry x="1420" y="300" width="100" height="40" as="geometry" />
        </mxCell>
        <mxCell id="iOZBX-VmQLaMs8w1UVqm-181" style="edgeStyle=none;rounded=0;orthogonalLoop=1;jettySize=auto;html=1;entryX=0;entryY=0.5;entryDx=0;entryDy=0;" parent="1" source="iOZBX-VmQLaMs8w1UVqm-163" target="iOZBX-VmQLaMs8w1UVqm-169" edge="1">
          <mxGeometry relative="1" as="geometry" />
        </mxCell>
        <mxCell id="iOZBX-VmQLaMs8w1UVqm-169" value="project_task_id" style="ellipse;whiteSpace=wrap;html=1;align=center;strokeColor=#000000;" parent="1" vertex="1">
          <mxGeometry x="1400" y="360" width="100" height="40" as="geometry" />
        </mxCell>
        <mxCell id="iOZBX-VmQLaMs8w1UVqm-183" style="edgeStyle=none;rounded=0;orthogonalLoop=1;jettySize=auto;html=1;exitX=0.894;exitY=-0.039;exitDx=0;exitDy=0;entryX=0;entryY=1;entryDx=0;entryDy=0;exitPerimeter=0;" parent="1" source="iOZBX-VmQLaMs8w1UVqm-163" target="iOZBX-VmQLaMs8w1UVqm-171" edge="1">
          <mxGeometry relative="1" as="geometry" />
        </mxCell>
        <mxCell id="iOZBX-VmQLaMs8w1UVqm-171" value="project_task_name" style="ellipse;whiteSpace=wrap;html=1;align=center;strokeColor=#000000;" parent="1" vertex="1">
          <mxGeometry x="1310" y="240" width="130" height="50" as="geometry" />
        </mxCell>
        <mxCell id="iOZBX-VmQLaMs8w1UVqm-180" style="edgeStyle=none;rounded=0;orthogonalLoop=1;jettySize=auto;html=1;exitX=0.917;exitY=1;exitDx=0;exitDy=0;entryX=0;entryY=0;entryDx=0;entryDy=0;exitPerimeter=0;" parent="1" source="iOZBX-VmQLaMs8w1UVqm-163" target="iOZBX-VmQLaMs8w1UVqm-173" edge="1">
          <mxGeometry relative="1" as="geometry" />
        </mxCell>
        <mxCell id="iOZBX-VmQLaMs8w1UVqm-173" value="reports_to_id" style="ellipse;whiteSpace=wrap;html=1;align=center;strokeColor=#000000;" parent="1" vertex="1">
          <mxGeometry x="1350" y="420" width="100" height="40" as="geometry" />
        </mxCell>
        <mxCell id="iOZBX-VmQLaMs8w1UVqm-179" style="edgeStyle=none;rounded=0;orthogonalLoop=1;jettySize=auto;html=1;entryX=1;entryY=0;entryDx=0;entryDy=0;" parent="1" source="iOZBX-VmQLaMs8w1UVqm-163" target="iOZBX-VmQLaMs8w1UVqm-174" edge="1">
          <mxGeometry relative="1" as="geometry" />
        </mxCell>
        <mxCell id="iOZBX-VmQLaMs8w1UVqm-174" value="progress" style="ellipse;whiteSpace=wrap;html=1;align=center;strokeColor=#000000;" parent="1" vertex="1">
          <mxGeometry x="1040" y="430" width="100" height="40" as="geometry" />
        </mxCell>
        <mxCell id="iOZBX-VmQLaMs8w1UVqm-189" value="" style="edgeStyle=none;rounded=0;orthogonalLoop=1;jettySize=auto;html=1;" parent="1" source="iOZBX-VmQLaMs8w1UVqm-184" target="iOZBX-VmQLaMs8w1UVqm-188" edge="1">
          <mxGeometry relative="1" as="geometry" />
        </mxCell>
        <mxCell id="iOZBX-VmQLaMs8w1UVqm-184" value="give the tasks to associates" style="rhombus;whiteSpace=wrap;html=1;" parent="1" vertex="1">
          <mxGeometry x="1165" y="490" width="130" height="130" as="geometry" />
        </mxCell>
        <mxCell id="iOZBX-VmQLaMs8w1UVqm-188" value="associates" style="whiteSpace=wrap;html=1;" parent="1" vertex="1">
          <mxGeometry x="1170" y="735" width="120" height="60" as="geometry" />
        </mxCell>
        <mxCell id="iOZBX-VmQLaMs8w1UVqm-202" style="edgeStyle=none;rounded=0;orthogonalLoop=1;jettySize=auto;html=1;entryX=1;entryY=1;entryDx=0;entryDy=0;" parent="1" source="iOZBX-VmQLaMs8w1UVqm-188" target="iOZBX-VmQLaMs8w1UVqm-190" edge="1">
          <mxGeometry relative="1" as="geometry" />
        </mxCell>
        <mxCell id="iOZBX-VmQLaMs8w1UVqm-190" value="id" style="ellipse;whiteSpace=wrap;html=1;align=center;fontStyle=4;strokeColor=#000000;" parent="1" vertex="1">
          <mxGeometry x="1060" y="670" width="100" height="40" as="geometry" />
        </mxCell>
        <mxCell id="iOZBX-VmQLaMs8w1UVqm-201" style="edgeStyle=none;rounded=0;orthogonalLoop=1;jettySize=auto;html=1;exitX=0;exitY=0.5;exitDx=0;exitDy=0;entryX=1;entryY=0.5;entryDx=0;entryDy=0;" parent="1" source="iOZBX-VmQLaMs8w1UVqm-188" target="iOZBX-VmQLaMs8w1UVqm-191" edge="1">
          <mxGeometry relative="1" as="geometry" />
        </mxCell>
        <mxCell id="iOZBX-VmQLaMs8w1UVqm-191" value="name" style="ellipse;whiteSpace=wrap;html=1;align=center;strokeColor=#000000;" parent="1" vertex="1">
          <mxGeometry x="1030" y="770" width="100" height="40" as="geometry" />
        </mxCell>
        <mxCell id="iOZBX-VmQLaMs8w1UVqm-200" style="edgeStyle=none;rounded=0;orthogonalLoop=1;jettySize=auto;html=1;entryX=0.5;entryY=0;entryDx=0;entryDy=0;" parent="1" source="iOZBX-VmQLaMs8w1UVqm-188" target="iOZBX-VmQLaMs8w1UVqm-192" edge="1">
          <mxGeometry relative="1" as="geometry" />
        </mxCell>
        <mxCell id="iOZBX-VmQLaMs8w1UVqm-192" value="project_task_id" style="ellipse;whiteSpace=wrap;html=1;align=center;strokeColor=#000000;" parent="1" vertex="1">
          <mxGeometry x="1110" y="850" width="100" height="40" as="geometry" />
        </mxCell>
        <mxCell id="iOZBX-VmQLaMs8w1UVqm-198" style="edgeStyle=none;rounded=0;orthogonalLoop=1;jettySize=auto;html=1;exitX=1;exitY=0.5;exitDx=0;exitDy=0;entryX=0;entryY=0.5;entryDx=0;entryDy=0;" parent="1" source="iOZBX-VmQLaMs8w1UVqm-188" target="iOZBX-VmQLaMs8w1UVqm-194" edge="1">
          <mxGeometry relative="1" as="geometry" />
        </mxCell>
        <mxCell id="iOZBX-VmQLaMs8w1UVqm-194" value="mgr" style="ellipse;whiteSpace=wrap;html=1;align=center;strokeColor=#000000;" parent="1" vertex="1">
          <mxGeometry x="1340" y="780" width="100" height="40" as="geometry" />
        </mxCell>
        <mxCell id="iOZBX-VmQLaMs8w1UVqm-197" style="edgeStyle=none;rounded=0;orthogonalLoop=1;jettySize=auto;html=1;entryX=0;entryY=0.5;entryDx=0;entryDy=0;" parent="1" source="iOZBX-VmQLaMs8w1UVqm-188" target="iOZBX-VmQLaMs8w1UVqm-195" edge="1">
          <mxGeometry relative="1" as="geometry" />
        </mxCell>
        <mxCell id="iOZBX-VmQLaMs8w1UVqm-195" value="project_task_name" style="ellipse;whiteSpace=wrap;html=1;align=center;strokeColor=#000000;" parent="1" vertex="1">
          <mxGeometry x="1325" y="700" width="125" height="60" as="geometry" />
        </mxCell>
        <mxCell id="iOZBX-VmQLaMs8w1UVqm-199" style="edgeStyle=none;rounded=0;orthogonalLoop=1;jettySize=auto;html=1;exitX=0.5;exitY=0;exitDx=0;exitDy=0;entryX=0.5;entryY=0;entryDx=0;entryDy=0;" parent="1" target="iOZBX-VmQLaMs8w1UVqm-196" edge="1">
          <mxGeometry relative="1" as="geometry">
            <mxPoint x="1260" y="800" as="sourcePoint" />
          </mxGeometry>
        </mxCell>
        <mxCell id="iOZBX-VmQLaMs8w1UVqm-196" value="progress" style="ellipse;whiteSpace=wrap;html=1;align=center;strokeColor=#000000;" parent="1" vertex="1">
          <mxGeometry x="1260" y="860" width="100" height="40" as="geometry" />
        </mxCell>
        <mxCell id="iOZBX-VmQLaMs8w1UVqm-203" value="priority" style="ellipse;whiteSpace=wrap;html=1;align=center;" parent="1" vertex="1">
          <mxGeometry x="364" y="-190" width="100" height="40" as="geometry" />
        </mxCell>
        <mxCell id="iOZBX-VmQLaMs8w1UVqm-207" style="edgeStyle=none;rounded=0;orthogonalLoop=1;jettySize=auto;html=1;entryX=1;entryY=0;entryDx=0;entryDy=0;" parent="1" source="iOZBX-VmQLaMs8w1UVqm-152" target="iOZBX-VmQLaMs8w1UVqm-206" edge="1">
          <mxGeometry relative="1" as="geometry" />
        </mxCell>
        <mxCell id="iOZBX-VmQLaMs8w1UVqm-206" value="priority" style="ellipse;whiteSpace=wrap;html=1;align=center;" parent="1" vertex="1">
          <mxGeometry x="460" y="300" width="100" height="40" as="geometry" />
        </mxCell>
      </root>
    </mxGraphModel>
  </diagram>
</mxfile>
=======
<mxfile host="app.diagrams.net" modified="2021-08-08T19:17:46.805Z" agent="5.0 (Windows NT 10.0; Win64; x64) AppleWebKit/537.36 (KHTML, like Gecko) Chrome/92.0.4515.131 Safari/537.36" etag="zSMImnCCaoDQadMFWja6" version="14.9.5" type="github">
  <diagram id="wq-XRTfU4Y2B7C9Du99J" name="Page-1">
    <mxGraphModel dx="1865" dy="1725" grid="1" gridSize="10" guides="1" tooltips="1" connect="1" arrows="1" fold="1" page="1" pageScale="1" pageWidth="827" pageHeight="1169" background="#97D077" math="0" shadow="0">
      <root>
        <mxCell id="0" />
        <mxCell id="1" parent="0" />
        <mxCell id="iOZBX-VmQLaMs8w1UVqm-68" value="" style="edgeStyle=orthogonalEdgeStyle;rounded=0;orthogonalLoop=1;jettySize=auto;html=1;" parent="1" source="iOZBX-VmQLaMs8w1UVqm-64" target="iOZBX-VmQLaMs8w1UVqm-66" edge="1">
          <mxGeometry relative="1" as="geometry" />
        </mxCell>
        <mxCell id="iOZBX-VmQLaMs8w1UVqm-76" value="" style="edgeStyle=orthogonalEdgeStyle;rounded=0;orthogonalLoop=1;jettySize=auto;html=1;" parent="1" source="iOZBX-VmQLaMs8w1UVqm-64" target="iOZBX-VmQLaMs8w1UVqm-73" edge="1">
          <mxGeometry relative="1" as="geometry" />
        </mxCell>
        <mxCell id="iOZBX-VmQLaMs8w1UVqm-78" value="" style="edgeStyle=orthogonalEdgeStyle;rounded=0;orthogonalLoop=1;jettySize=auto;html=1;" parent="1" source="iOZBX-VmQLaMs8w1UVqm-64" target="iOZBX-VmQLaMs8w1UVqm-72" edge="1">
          <mxGeometry relative="1" as="geometry" />
        </mxCell>
        <mxCell id="iOZBX-VmQLaMs8w1UVqm-81" value="" style="edgeStyle=none;rounded=0;orthogonalLoop=1;jettySize=auto;html=1;" parent="1" source="iOZBX-VmQLaMs8w1UVqm-64" target="iOZBX-VmQLaMs8w1UVqm-80" edge="1">
          <mxGeometry relative="1" as="geometry" />
        </mxCell>
        <mxCell id="iOZBX-VmQLaMs8w1UVqm-64" value="board" style="whiteSpace=wrap;html=1;align=center;" parent="1" vertex="1">
          <mxGeometry x="360" y="-1090" width="100" height="40" as="geometry" />
        </mxCell>
        <mxCell id="iOZBX-VmQLaMs8w1UVqm-66" value="&lt;span style=&quot;border-bottom: 1px dotted&quot;&gt;id&lt;/span&gt;" style="ellipse;whiteSpace=wrap;html=1;align=center;" parent="1" vertex="1">
          <mxGeometry x="520" y="-1090" width="100" height="40" as="geometry" />
        </mxCell>
        <mxCell id="iOZBX-VmQLaMs8w1UVqm-72" value="name" style="ellipse;whiteSpace=wrap;html=1;align=center;" parent="1" vertex="1">
          <mxGeometry x="200" y="-1090" width="100" height="40" as="geometry" />
        </mxCell>
        <mxCell id="iOZBX-VmQLaMs8w1UVqm-73" value="role" style="ellipse;whiteSpace=wrap;html=1;align=center;" parent="1" vertex="1">
          <mxGeometry x="360" y="-1160" width="100" height="40" as="geometry" />
        </mxCell>
        <mxCell id="iOZBX-VmQLaMs8w1UVqm-83" value="" style="edgeStyle=none;rounded=0;orthogonalLoop=1;jettySize=auto;html=1;" parent="1" source="iOZBX-VmQLaMs8w1UVqm-80" target="iOZBX-VmQLaMs8w1UVqm-82" edge="1">
          <mxGeometry relative="1" as="geometry" />
        </mxCell>
        <mxCell id="iOZBX-VmQLaMs8w1UVqm-80" value="tells the tasks" style="shape=rhombus;perimeter=rhombusPerimeter;whiteSpace=wrap;html=1;align=center;" parent="1" vertex="1">
          <mxGeometry x="350" y="-1000" width="120" height="60" as="geometry" />
        </mxCell>
        <mxCell id="iOZBX-VmQLaMs8w1UVqm-86" value="" style="edgeStyle=none;rounded=0;orthogonalLoop=1;jettySize=auto;html=1;" parent="1" source="iOZBX-VmQLaMs8w1UVqm-82" target="iOZBX-VmQLaMs8w1UVqm-85" edge="1">
          <mxGeometry relative="1" as="geometry" />
        </mxCell>
        <mxCell id="iOZBX-VmQLaMs8w1UVqm-87" value="" style="edgeStyle=none;rounded=0;orthogonalLoop=1;jettySize=auto;html=1;" parent="1" source="iOZBX-VmQLaMs8w1UVqm-82" target="iOZBX-VmQLaMs8w1UVqm-84" edge="1">
          <mxGeometry relative="1" as="geometry" />
        </mxCell>
        <mxCell id="iOZBX-VmQLaMs8w1UVqm-95" value="" style="edgeStyle=orthogonalEdgeStyle;rounded=0;orthogonalLoop=1;jettySize=auto;html=1;" parent="1" source="iOZBX-VmQLaMs8w1UVqm-82" target="iOZBX-VmQLaMs8w1UVqm-89" edge="1">
          <mxGeometry relative="1" as="geometry">
            <Array as="points">
              <mxPoint x="410" y="-840" />
              <mxPoint x="180" y="-840" />
            </Array>
          </mxGeometry>
        </mxCell>
        <mxCell id="iOZBX-VmQLaMs8w1UVqm-82" value="ceo" style="whiteSpace=wrap;html=1;align=center;" parent="1" vertex="1">
          <mxGeometry x="360" y="-900" width="100" height="40" as="geometry" />
        </mxCell>
        <mxCell id="iOZBX-VmQLaMs8w1UVqm-84" value="id" style="ellipse;whiteSpace=wrap;html=1;align=center;fontStyle=4;" parent="1" vertex="1">
          <mxGeometry x="520" y="-930" width="100" height="40" as="geometry" />
        </mxCell>
        <mxCell id="iOZBX-VmQLaMs8w1UVqm-85" value="name" style="ellipse;whiteSpace=wrap;html=1;align=center;" parent="1" vertex="1">
          <mxGeometry x="200" y="-930" width="100" height="40" as="geometry" />
        </mxCell>
        <mxCell id="iOZBX-VmQLaMs8w1UVqm-103" value="" style="edgeStyle=orthogonalEdgeStyle;rounded=0;orthogonalLoop=1;jettySize=auto;html=1;" parent="1" source="iOZBX-VmQLaMs8w1UVqm-82" target="iOZBX-VmQLaMs8w1UVqm-88" edge="1">
          <mxGeometry relative="1" as="geometry" />
        </mxCell>
        <mxCell id="iOZBX-VmQLaMs8w1UVqm-105" value="" style="edgeStyle=orthogonalEdgeStyle;rounded=0;orthogonalLoop=1;jettySize=auto;html=1;" parent="1" source="iOZBX-VmQLaMs8w1UVqm-88" target="iOZBX-VmQLaMs8w1UVqm-104" edge="1">
          <mxGeometry relative="1" as="geometry" />
        </mxCell>
        <mxCell id="iOZBX-VmQLaMs8w1UVqm-88" value="assigns the tasks to &lt;br&gt;c-level members" style="shape=rhombus;perimeter=rhombusPerimeter;whiteSpace=wrap;html=1;align=center;" parent="1" vertex="1">
          <mxGeometry x="571" y="-820" width="159" height="130" as="geometry" />
        </mxCell>
        <mxCell id="iOZBX-VmQLaMs8w1UVqm-96" value="" style="edgeStyle=orthogonalEdgeStyle;rounded=0;orthogonalLoop=1;jettySize=auto;html=1;" parent="1" source="iOZBX-VmQLaMs8w1UVqm-89" target="iOZBX-VmQLaMs8w1UVqm-90" edge="1">
          <mxGeometry relative="1" as="geometry" />
        </mxCell>
        <mxCell id="iOZBX-VmQLaMs8w1UVqm-89" value="lists out the tasks" style="shape=rhombus;perimeter=rhombusPerimeter;whiteSpace=wrap;html=1;align=center;" parent="1" vertex="1">
          <mxGeometry x="120" y="-770" width="120" height="50" as="geometry" />
        </mxCell>
        <mxCell id="iOZBX-VmQLaMs8w1UVqm-92" value="" style="edgeStyle=none;rounded=0;orthogonalLoop=1;jettySize=auto;html=1;" parent="1" source="iOZBX-VmQLaMs8w1UVqm-90" target="iOZBX-VmQLaMs8w1UVqm-91" edge="1">
          <mxGeometry relative="1" as="geometry" />
        </mxCell>
        <mxCell id="iOZBX-VmQLaMs8w1UVqm-94" value="" style="edgeStyle=none;rounded=0;orthogonalLoop=1;jettySize=auto;html=1;" parent="1" source="iOZBX-VmQLaMs8w1UVqm-90" target="iOZBX-VmQLaMs8w1UVqm-93" edge="1">
          <mxGeometry relative="1" as="geometry" />
        </mxCell>
        <mxCell id="iOZBX-VmQLaMs8w1UVqm-98" value="" style="rounded=0;orthogonalLoop=1;jettySize=auto;html=1;" parent="1" source="iOZBX-VmQLaMs8w1UVqm-90" target="iOZBX-VmQLaMs8w1UVqm-97" edge="1">
          <mxGeometry relative="1" as="geometry" />
        </mxCell>
        <mxCell id="iOZBX-VmQLaMs8w1UVqm-100" value="" style="edgeStyle=none;rounded=0;orthogonalLoop=1;jettySize=auto;html=1;" parent="1" source="iOZBX-VmQLaMs8w1UVqm-90" target="iOZBX-VmQLaMs8w1UVqm-97" edge="1">
          <mxGeometry relative="1" as="geometry" />
        </mxCell>
        <mxCell id="iOZBX-VmQLaMs8w1UVqm-101" value="" style="edgeStyle=none;rounded=0;orthogonalLoop=1;jettySize=auto;html=1;" parent="1" source="iOZBX-VmQLaMs8w1UVqm-90" target="iOZBX-VmQLaMs8w1UVqm-99" edge="1">
          <mxGeometry relative="1" as="geometry" />
        </mxCell>
        <mxCell id="iOZBX-VmQLaMs8w1UVqm-116" value="" style="edgeStyle=none;rounded=0;orthogonalLoop=1;jettySize=auto;html=1;" parent="1" source="iOZBX-VmQLaMs8w1UVqm-90" target="iOZBX-VmQLaMs8w1UVqm-115" edge="1">
          <mxGeometry relative="1" as="geometry" />
        </mxCell>
        <mxCell id="iOZBX-VmQLaMs8w1UVqm-90" value="tasks" style="whiteSpace=wrap;html=1;align=center;" parent="1" vertex="1">
          <mxGeometry x="130" y="-644" width="100" height="40" as="geometry" />
        </mxCell>
        <mxCell id="iOZBX-VmQLaMs8w1UVqm-91" value="task_id" style="ellipse;whiteSpace=wrap;html=1;align=center;fontStyle=4;" parent="1" vertex="1">
          <mxGeometry x="260" y="-700" width="100" height="40" as="geometry" />
        </mxCell>
        <mxCell id="iOZBX-VmQLaMs8w1UVqm-93" value="task_name" style="ellipse;whiteSpace=wrap;html=1;align=center;" parent="1" vertex="1">
          <mxGeometry x="290" y="-604" width="100" height="40" as="geometry" />
        </mxCell>
        <mxCell id="iOZBX-VmQLaMs8w1UVqm-97" value="dept" style="ellipse;whiteSpace=wrap;html=1;align=center;" parent="1" vertex="1">
          <mxGeometry x="-20" y="-610" width="100" height="40" as="geometry" />
        </mxCell>
        <mxCell id="iOZBX-VmQLaMs8w1UVqm-99" value="priority" style="ellipse;whiteSpace=wrap;html=1;align=center;" parent="1" vertex="1">
          <mxGeometry x="-10" y="-700" width="100" height="40" as="geometry" />
        </mxCell>
        <mxCell id="iOZBX-VmQLaMs8w1UVqm-111" value="" style="rounded=0;orthogonalLoop=1;jettySize=auto;html=1;" parent="1" source="iOZBX-VmQLaMs8w1UVqm-104" target="iOZBX-VmQLaMs8w1UVqm-107" edge="1">
          <mxGeometry relative="1" as="geometry" />
        </mxCell>
        <mxCell id="iOZBX-VmQLaMs8w1UVqm-112" value="" style="edgeStyle=none;rounded=0;orthogonalLoop=1;jettySize=auto;html=1;" parent="1" source="iOZBX-VmQLaMs8w1UVqm-104" target="iOZBX-VmQLaMs8w1UVqm-108" edge="1">
          <mxGeometry relative="1" as="geometry" />
        </mxCell>
        <mxCell id="iOZBX-VmQLaMs8w1UVqm-113" value="" style="edgeStyle=none;rounded=0;orthogonalLoop=1;jettySize=auto;html=1;" parent="1" source="iOZBX-VmQLaMs8w1UVqm-104" target="iOZBX-VmQLaMs8w1UVqm-106" edge="1">
          <mxGeometry relative="1" as="geometry" />
        </mxCell>
        <mxCell id="iOZBX-VmQLaMs8w1UVqm-114" value="" style="edgeStyle=none;rounded=0;orthogonalLoop=1;jettySize=auto;html=1;" parent="1" source="iOZBX-VmQLaMs8w1UVqm-104" target="iOZBX-VmQLaMs8w1UVqm-109" edge="1">
          <mxGeometry relative="1" as="geometry" />
        </mxCell>
        <mxCell id="iOZBX-VmQLaMs8w1UVqm-118" value="" style="edgeStyle=none;rounded=0;orthogonalLoop=1;jettySize=auto;html=1;" parent="1" source="iOZBX-VmQLaMs8w1UVqm-104" target="iOZBX-VmQLaMs8w1UVqm-117" edge="1">
          <mxGeometry relative="1" as="geometry" />
        </mxCell>
        <mxCell id="iOZBX-VmQLaMs8w1UVqm-120" value="" style="edgeStyle=orthogonalEdgeStyle;rounded=0;orthogonalLoop=1;jettySize=auto;html=1;exitX=0.5;exitY=1;exitDx=0;exitDy=0;" parent="1" source="iOZBX-VmQLaMs8w1UVqm-104" target="iOZBX-VmQLaMs8w1UVqm-119" edge="1">
          <mxGeometry relative="1" as="geometry" />
        </mxCell>
        <mxCell id="iOZBX-VmQLaMs8w1UVqm-135" value="" style="edgeStyle=orthogonalEdgeStyle;rounded=0;orthogonalLoop=1;jettySize=auto;html=1;" parent="1" source="iOZBX-VmQLaMs8w1UVqm-104" target="iOZBX-VmQLaMs8w1UVqm-134" edge="1">
          <mxGeometry relative="1" as="geometry">
            <Array as="points">
              <mxPoint x="630" y="-490" />
              <mxPoint x="900" y="-490" />
            </Array>
          </mxGeometry>
        </mxCell>
        <mxCell id="iOZBX-VmQLaMs8w1UVqm-104" value="c-level members" style="whiteSpace=wrap;html=1;align=center;" parent="1" vertex="1">
          <mxGeometry x="580" y="-630" width="100" height="40" as="geometry" />
        </mxCell>
        <mxCell id="iOZBX-VmQLaMs8w1UVqm-106" value="task_id" style="ellipse;whiteSpace=wrap;html=1;align=center;fontStyle=4;" parent="1" vertex="1">
          <mxGeometry x="727" y="-690" width="100" height="40" as="geometry" />
        </mxCell>
        <mxCell id="iOZBX-VmQLaMs8w1UVqm-107" value="id" style="ellipse;whiteSpace=wrap;html=1;align=center;fontStyle=4;" parent="1" vertex="1">
          <mxGeometry x="450" y="-710" width="100" height="40" as="geometry" />
        </mxCell>
        <mxCell id="iOZBX-VmQLaMs8w1UVqm-108" value="key filters" style="ellipse;whiteSpace=wrap;html=1;align=center;" parent="1" vertex="1">
          <mxGeometry x="450" y="-584" width="100" height="40" as="geometry" />
        </mxCell>
        <mxCell id="iOZBX-VmQLaMs8w1UVqm-109" value="notes" style="ellipse;whiteSpace=wrap;html=1;align=center;" parent="1" vertex="1">
          <mxGeometry x="810" y="-630" width="100" height="40" as="geometry" />
        </mxCell>
        <mxCell id="iOZBX-VmQLaMs8w1UVqm-115" value="assigned_to_id" style="ellipse;whiteSpace=wrap;html=1;align=center;fontStyle=0;" parent="1" vertex="1">
          <mxGeometry x="190" y="-550" width="100" height="40" as="geometry" />
        </mxCell>
        <mxCell id="iOZBX-VmQLaMs8w1UVqm-117" value="progress" style="ellipse;whiteSpace=wrap;html=1;align=center;strokeColor=#000000;" parent="1" vertex="1">
          <mxGeometry x="790" y="-560" width="100" height="40" as="geometry" />
        </mxCell>
        <mxCell id="iOZBX-VmQLaMs8w1UVqm-122" value="" style="edgeStyle=none;rounded=0;orthogonalLoop=1;jettySize=auto;html=1;" parent="1" source="iOZBX-VmQLaMs8w1UVqm-119" target="iOZBX-VmQLaMs8w1UVqm-121" edge="1">
          <mxGeometry relative="1" as="geometry" />
        </mxCell>
        <mxCell id="iOZBX-VmQLaMs8w1UVqm-119" value="divides tasks &lt;br&gt;into projects" style="shape=rhombus;perimeter=rhombusPerimeter;whiteSpace=wrap;html=1;align=center;strokeColor=#000000;" parent="1" vertex="1">
          <mxGeometry x="401" y="-440" width="119" height="70" as="geometry" />
        </mxCell>
        <mxCell id="iOZBX-VmQLaMs8w1UVqm-129" value="" style="rounded=0;orthogonalLoop=1;jettySize=auto;html=1;" parent="1" source="iOZBX-VmQLaMs8w1UVqm-121" target="iOZBX-VmQLaMs8w1UVqm-126" edge="1">
          <mxGeometry relative="1" as="geometry" />
        </mxCell>
        <mxCell id="iOZBX-VmQLaMs8w1UVqm-131" value="" style="edgeStyle=none;rounded=0;orthogonalLoop=1;jettySize=auto;html=1;" parent="1" source="iOZBX-VmQLaMs8w1UVqm-121" target="iOZBX-VmQLaMs8w1UVqm-125" edge="1">
          <mxGeometry relative="1" as="geometry" />
        </mxCell>
        <mxCell id="iOZBX-VmQLaMs8w1UVqm-132" value="" style="edgeStyle=none;rounded=0;orthogonalLoop=1;jettySize=auto;html=1;" parent="1" source="iOZBX-VmQLaMs8w1UVqm-121" target="iOZBX-VmQLaMs8w1UVqm-124" edge="1">
          <mxGeometry relative="1" as="geometry" />
        </mxCell>
        <mxCell id="iOZBX-VmQLaMs8w1UVqm-133" value="" style="edgeStyle=none;rounded=0;orthogonalLoop=1;jettySize=auto;html=1;" parent="1" source="iOZBX-VmQLaMs8w1UVqm-121" target="iOZBX-VmQLaMs8w1UVqm-123" edge="1">
          <mxGeometry relative="1" as="geometry" />
        </mxCell>
        <mxCell id="iOZBX-VmQLaMs8w1UVqm-205" style="edgeStyle=none;rounded=0;orthogonalLoop=1;jettySize=auto;html=1;exitX=0.25;exitY=1;exitDx=0;exitDy=0;entryX=0;entryY=0;entryDx=0;entryDy=0;" parent="1" source="iOZBX-VmQLaMs8w1UVqm-121" target="iOZBX-VmQLaMs8w1UVqm-203" edge="1">
          <mxGeometry relative="1" as="geometry" />
        </mxCell>
        <mxCell id="iOZBX-VmQLaMs8w1UVqm-121" value="projects" style="whiteSpace=wrap;html=1;" parent="1" vertex="1">
          <mxGeometry x="401" y="-305" width="120" height="60" as="geometry" />
        </mxCell>
        <mxCell id="iOZBX-VmQLaMs8w1UVqm-123" value="project_id" style="ellipse;whiteSpace=wrap;html=1;align=center;fontStyle=4;strokeColor=#000000;" parent="1" vertex="1">
          <mxGeometry x="270" y="-380" width="100" height="40" as="geometry" />
        </mxCell>
        <mxCell id="iOZBX-VmQLaMs8w1UVqm-124" value="project_name" style="ellipse;whiteSpace=wrap;html=1;align=center;strokeColor=#000000;" parent="1" vertex="1">
          <mxGeometry x="200" y="-295" width="100" height="40" as="geometry" />
        </mxCell>
        <mxCell id="iOZBX-VmQLaMs8w1UVqm-125" value="dept" style="ellipse;whiteSpace=wrap;html=1;align=center;strokeColor=#000000;" parent="1" vertex="1">
          <mxGeometry x="240" y="-215" width="100" height="40" as="geometry" />
        </mxCell>
        <mxCell id="iOZBX-VmQLaMs8w1UVqm-126" value="task_id" style="ellipse;whiteSpace=wrap;html=1;align=center;strokeColor=#000000;" parent="1" vertex="1">
          <mxGeometry x="580" y="-255" width="100" height="40" as="geometry" />
        </mxCell>
        <mxCell id="iOZBX-VmQLaMs8w1UVqm-130" style="edgeStyle=none;rounded=0;orthogonalLoop=1;jettySize=auto;html=1;exitX=1;exitY=0;exitDx=0;exitDy=0;entryX=0;entryY=1;entryDx=0;entryDy=0;" parent="1" source="iOZBX-VmQLaMs8w1UVqm-121" target="iOZBX-VmQLaMs8w1UVqm-127" edge="1">
          <mxGeometry relative="1" as="geometry" />
        </mxCell>
        <mxCell id="iOZBX-VmQLaMs8w1UVqm-127" value="assigned_to_id" style="ellipse;whiteSpace=wrap;html=1;align=center;strokeColor=#000000;" parent="1" vertex="1">
          <mxGeometry x="550" y="-370" width="100" height="40" as="geometry" />
        </mxCell>
        <mxCell id="iOZBX-VmQLaMs8w1UVqm-137" value="" style="edgeStyle=orthogonalEdgeStyle;rounded=0;orthogonalLoop=1;jettySize=auto;html=1;" parent="1" source="iOZBX-VmQLaMs8w1UVqm-134" target="iOZBX-VmQLaMs8w1UVqm-136" edge="1">
          <mxGeometry relative="1" as="geometry" />
        </mxCell>
        <mxCell id="iOZBX-VmQLaMs8w1UVqm-134" value="assigns the projects to dept heads" style="rhombus;whiteSpace=wrap;html=1;" parent="1" vertex="1">
          <mxGeometry x="830" y="-470" width="140" height="100" as="geometry" />
        </mxCell>
        <mxCell id="iOZBX-VmQLaMs8w1UVqm-144" style="rounded=0;orthogonalLoop=1;jettySize=auto;html=1;exitX=0.25;exitY=0;exitDx=0;exitDy=0;" parent="1" source="iOZBX-VmQLaMs8w1UVqm-136" target="iOZBX-VmQLaMs8w1UVqm-143" edge="1">
          <mxGeometry relative="1" as="geometry" />
        </mxCell>
        <mxCell id="iOZBX-VmQLaMs8w1UVqm-145" style="edgeStyle=none;rounded=0;orthogonalLoop=1;jettySize=auto;html=1;exitX=1;exitY=0;exitDx=0;exitDy=0;" parent="1" source="iOZBX-VmQLaMs8w1UVqm-136" target="iOZBX-VmQLaMs8w1UVqm-138" edge="1">
          <mxGeometry relative="1" as="geometry" />
        </mxCell>
        <mxCell id="iOZBX-VmQLaMs8w1UVqm-146" style="edgeStyle=none;rounded=0;orthogonalLoop=1;jettySize=auto;html=1;exitX=1;exitY=0.5;exitDx=0;exitDy=0;" parent="1" source="iOZBX-VmQLaMs8w1UVqm-136" target="iOZBX-VmQLaMs8w1UVqm-139" edge="1">
          <mxGeometry relative="1" as="geometry" />
        </mxCell>
        <mxCell id="iOZBX-VmQLaMs8w1UVqm-147" style="edgeStyle=none;rounded=0;orthogonalLoop=1;jettySize=auto;html=1;exitX=1;exitY=1;exitDx=0;exitDy=0;" parent="1" source="iOZBX-VmQLaMs8w1UVqm-136" target="iOZBX-VmQLaMs8w1UVqm-140" edge="1">
          <mxGeometry relative="1" as="geometry" />
        </mxCell>
        <mxCell id="iOZBX-VmQLaMs8w1UVqm-148" style="edgeStyle=none;rounded=0;orthogonalLoop=1;jettySize=auto;html=1;exitX=0.25;exitY=1;exitDx=0;exitDy=0;" parent="1" source="iOZBX-VmQLaMs8w1UVqm-136" target="iOZBX-VmQLaMs8w1UVqm-141" edge="1">
          <mxGeometry relative="1" as="geometry" />
        </mxCell>
        <mxCell id="iOZBX-VmQLaMs8w1UVqm-149" style="edgeStyle=none;rounded=0;orthogonalLoop=1;jettySize=auto;html=1;exitX=0;exitY=0.5;exitDx=0;exitDy=0;" parent="1" source="iOZBX-VmQLaMs8w1UVqm-136" target="iOZBX-VmQLaMs8w1UVqm-142" edge="1">
          <mxGeometry relative="1" as="geometry" />
        </mxCell>
        <mxCell id="iOZBX-VmQLaMs8w1UVqm-151" value="" style="edgeStyle=orthogonalEdgeStyle;rounded=0;orthogonalLoop=1;jettySize=auto;html=1;" parent="1" source="iOZBX-VmQLaMs8w1UVqm-136" target="iOZBX-VmQLaMs8w1UVqm-150" edge="1">
          <mxGeometry relative="1" as="geometry">
            <Array as="points">
              <mxPoint x="890" y="-5" />
            </Array>
          </mxGeometry>
        </mxCell>
        <mxCell id="iOZBX-VmQLaMs8w1UVqm-162" value="" style="edgeStyle=orthogonalEdgeStyle;rounded=0;orthogonalLoop=1;jettySize=auto;html=1;" parent="1" source="iOZBX-VmQLaMs8w1UVqm-136" target="iOZBX-VmQLaMs8w1UVqm-161" edge="1">
          <mxGeometry relative="1" as="geometry">
            <Array as="points">
              <mxPoint x="920" y="100" />
            </Array>
          </mxGeometry>
        </mxCell>
        <mxCell id="iOZBX-VmQLaMs8w1UVqm-136" value="dept heads" style="whiteSpace=wrap;html=1;" parent="1" vertex="1">
          <mxGeometry x="840" y="-275" width="120" height="60" as="geometry" />
        </mxCell>
        <mxCell id="iOZBX-VmQLaMs8w1UVqm-138" value="id" style="ellipse;whiteSpace=wrap;html=1;align=center;fontStyle=4;strokeColor=#000000;" parent="1" vertex="1">
          <mxGeometry x="1000" y="-330" width="100" height="40" as="geometry" />
        </mxCell>
        <mxCell id="iOZBX-VmQLaMs8w1UVqm-139" value="name" style="ellipse;whiteSpace=wrap;html=1;align=center;strokeColor=#000000;" parent="1" vertex="1">
          <mxGeometry x="1020" y="-245" width="100" height="40" as="geometry" />
        </mxCell>
        <mxCell id="iOZBX-VmQLaMs8w1UVqm-140" value="dept" style="ellipse;whiteSpace=wrap;html=1;align=center;strokeColor=#000000;" parent="1" vertex="1">
          <mxGeometry x="980" y="-180" width="100" height="40" as="geometry" />
        </mxCell>
        <mxCell id="iOZBX-VmQLaMs8w1UVqm-141" value="project_id" style="ellipse;whiteSpace=wrap;html=1;align=center;strokeColor=#000000;" parent="1" vertex="1">
          <mxGeometry x="740" y="-190" width="100" height="40" as="geometry" />
        </mxCell>
        <mxCell id="iOZBX-VmQLaMs8w1UVqm-142" value="reports_to_id" style="ellipse;whiteSpace=wrap;html=1;align=center;strokeColor=#000000;" parent="1" vertex="1">
          <mxGeometry x="710" y="-255" width="100" height="40" as="geometry" />
        </mxCell>
        <mxCell id="iOZBX-VmQLaMs8w1UVqm-143" value="progress" style="ellipse;whiteSpace=wrap;html=1;align=center;strokeColor=#000000;" parent="1" vertex="1">
          <mxGeometry x="750" y="-345" width="100" height="40" as="geometry" />
        </mxCell>
        <mxCell id="iOZBX-VmQLaMs8w1UVqm-153" value="" style="edgeStyle=orthogonalEdgeStyle;rounded=0;orthogonalLoop=1;jettySize=auto;html=1;" parent="1" source="iOZBX-VmQLaMs8w1UVqm-150" target="iOZBX-VmQLaMs8w1UVqm-152" edge="1">
          <mxGeometry relative="1" as="geometry" />
        </mxCell>
        <mxCell id="iOZBX-VmQLaMs8w1UVqm-150" value="dividing projects to project_tasks" style="rhombus;whiteSpace=wrap;html=1;" parent="1" vertex="1">
          <mxGeometry x="590" y="-70" width="150" height="130" as="geometry" />
        </mxCell>
        <mxCell id="iOZBX-VmQLaMs8w1UVqm-158" style="rounded=0;orthogonalLoop=1;jettySize=auto;html=1;exitX=1;exitY=0.25;exitDx=0;exitDy=0;" parent="1" source="iOZBX-VmQLaMs8w1UVqm-152" target="iOZBX-VmQLaMs8w1UVqm-154" edge="1">
          <mxGeometry relative="1" as="geometry" />
        </mxCell>
        <mxCell id="iOZBX-VmQLaMs8w1UVqm-159" style="edgeStyle=none;rounded=0;orthogonalLoop=1;jettySize=auto;html=1;exitX=0.5;exitY=1;exitDx=0;exitDy=0;" parent="1" source="iOZBX-VmQLaMs8w1UVqm-152" target="iOZBX-VmQLaMs8w1UVqm-156" edge="1">
          <mxGeometry relative="1" as="geometry" />
        </mxCell>
        <mxCell id="iOZBX-VmQLaMs8w1UVqm-160" style="edgeStyle=none;rounded=0;orthogonalLoop=1;jettySize=auto;html=1;exitX=0;exitY=0.25;exitDx=0;exitDy=0;" parent="1" source="iOZBX-VmQLaMs8w1UVqm-152" target="iOZBX-VmQLaMs8w1UVqm-155" edge="1">
          <mxGeometry relative="1" as="geometry" />
        </mxCell>
        <mxCell id="iOZBX-VmQLaMs8w1UVqm-152" value="project_tasks" style="whiteSpace=wrap;html=1;" parent="1" vertex="1">
          <mxGeometry x="605" y="190" width="120" height="60" as="geometry" />
        </mxCell>
        <mxCell id="iOZBX-VmQLaMs8w1UVqm-154" value="project_task_id" style="ellipse;whiteSpace=wrap;html=1;align=center;fontStyle=4;strokeColor=#000000;" parent="1" vertex="1">
          <mxGeometry x="780" y="220" width="140" height="50" as="geometry" />
        </mxCell>
        <mxCell id="iOZBX-VmQLaMs8w1UVqm-155" value="project_id" style="ellipse;whiteSpace=wrap;html=1;align=center;strokeColor=#000000;" parent="1" vertex="1">
          <mxGeometry x="414" y="190" width="136" height="60" as="geometry" />
        </mxCell>
        <mxCell id="iOZBX-VmQLaMs8w1UVqm-156" value="project_task_name" style="ellipse;whiteSpace=wrap;html=1;align=center;strokeColor=#000000;" parent="1" vertex="1">
          <mxGeometry x="600" y="280" width="130" height="60" as="geometry" />
        </mxCell>
        <mxCell id="iOZBX-VmQLaMs8w1UVqm-164" value="" style="edgeStyle=orthogonalEdgeStyle;rounded=0;orthogonalLoop=1;jettySize=auto;html=1;" parent="1" source="iOZBX-VmQLaMs8w1UVqm-161" target="iOZBX-VmQLaMs8w1UVqm-163" edge="1">
          <mxGeometry relative="1" as="geometry" />
        </mxCell>
        <mxCell id="iOZBX-VmQLaMs8w1UVqm-161" value="assigning project&lt;br&gt;&amp;nbsp;tasks to managers" style="rhombus;whiteSpace=wrap;html=1;" parent="1" vertex="1">
          <mxGeometry x="1040" y="20" width="140" height="160" as="geometry" />
        </mxCell>
        <mxCell id="iOZBX-VmQLaMs8w1UVqm-185" value="" style="edgeStyle=none;rounded=0;orthogonalLoop=1;jettySize=auto;html=1;" parent="1" source="iOZBX-VmQLaMs8w1UVqm-163" target="iOZBX-VmQLaMs8w1UVqm-184" edge="1">
          <mxGeometry relative="1" as="geometry" />
        </mxCell>
        <mxCell id="iOZBX-VmQLaMs8w1UVqm-163" value="managers" style="whiteSpace=wrap;html=1;" parent="1" vertex="1">
          <mxGeometry x="1170" y="320" width="120" height="60" as="geometry" />
        </mxCell>
        <mxCell id="iOZBX-VmQLaMs8w1UVqm-176" style="rounded=0;orthogonalLoop=1;jettySize=auto;html=1;exitX=0;exitY=0.25;exitDx=0;exitDy=0;entryX=1;entryY=1;entryDx=0;entryDy=0;" parent="1" source="iOZBX-VmQLaMs8w1UVqm-163" target="iOZBX-VmQLaMs8w1UVqm-165" edge="1">
          <mxGeometry relative="1" as="geometry" />
        </mxCell>
        <mxCell id="iOZBX-VmQLaMs8w1UVqm-165" value="id" style="ellipse;whiteSpace=wrap;html=1;align=center;fontStyle=4;strokeColor=#000000;" parent="1" vertex="1">
          <mxGeometry x="1060" y="260" width="100" height="40" as="geometry" />
        </mxCell>
        <mxCell id="iOZBX-VmQLaMs8w1UVqm-177" style="edgeStyle=none;rounded=0;orthogonalLoop=1;jettySize=auto;html=1;exitX=0;exitY=0.75;exitDx=0;exitDy=0;entryX=1;entryY=1;entryDx=0;entryDy=0;" parent="1" source="iOZBX-VmQLaMs8w1UVqm-163" target="iOZBX-VmQLaMs8w1UVqm-166" edge="1">
          <mxGeometry relative="1" as="geometry" />
        </mxCell>
        <mxCell id="iOZBX-VmQLaMs8w1UVqm-166" value="name" style="ellipse;whiteSpace=wrap;html=1;align=center;strokeColor=#000000;" parent="1" vertex="1">
          <mxGeometry x="1010" y="310" width="100" height="40" as="geometry" />
        </mxCell>
        <mxCell id="iOZBX-VmQLaMs8w1UVqm-178" style="edgeStyle=none;rounded=0;orthogonalLoop=1;jettySize=auto;html=1;exitX=1;exitY=0;exitDx=0;exitDy=0;entryX=1;entryY=0;entryDx=0;entryDy=0;" parent="1" target="iOZBX-VmQLaMs8w1UVqm-167" edge="1">
          <mxGeometry relative="1" as="geometry">
            <mxPoint x="1170" y="370.0000000000002" as="sourcePoint" />
          </mxGeometry>
        </mxCell>
        <mxCell id="iOZBX-VmQLaMs8w1UVqm-167" value="project_name" style="ellipse;whiteSpace=wrap;html=1;align=center;strokeColor=#000000;" parent="1" vertex="1">
          <mxGeometry x="1000" y="370" width="100" height="40" as="geometry" />
        </mxCell>
        <mxCell id="iOZBX-VmQLaMs8w1UVqm-182" style="edgeStyle=none;rounded=0;orthogonalLoop=1;jettySize=auto;html=1;exitX=1.017;exitY=0.35;exitDx=0;exitDy=0;entryX=0;entryY=0.5;entryDx=0;entryDy=0;exitPerimeter=0;" parent="1" source="iOZBX-VmQLaMs8w1UVqm-163" target="iOZBX-VmQLaMs8w1UVqm-168" edge="1">
          <mxGeometry relative="1" as="geometry" />
        </mxCell>
        <mxCell id="iOZBX-VmQLaMs8w1UVqm-168" value="project_id" style="ellipse;whiteSpace=wrap;html=1;align=center;strokeColor=#000000;" parent="1" vertex="1">
          <mxGeometry x="1420" y="300" width="100" height="40" as="geometry" />
        </mxCell>
        <mxCell id="iOZBX-VmQLaMs8w1UVqm-181" style="edgeStyle=none;rounded=0;orthogonalLoop=1;jettySize=auto;html=1;entryX=0;entryY=0.5;entryDx=0;entryDy=0;" parent="1" source="iOZBX-VmQLaMs8w1UVqm-163" target="iOZBX-VmQLaMs8w1UVqm-169" edge="1">
          <mxGeometry relative="1" as="geometry" />
        </mxCell>
        <mxCell id="iOZBX-VmQLaMs8w1UVqm-169" value="project_task_id" style="ellipse;whiteSpace=wrap;html=1;align=center;strokeColor=#000000;" parent="1" vertex="1">
          <mxGeometry x="1400" y="360" width="100" height="40" as="geometry" />
        </mxCell>
        <mxCell id="iOZBX-VmQLaMs8w1UVqm-183" style="edgeStyle=none;rounded=0;orthogonalLoop=1;jettySize=auto;html=1;exitX=0.894;exitY=-0.039;exitDx=0;exitDy=0;entryX=0;entryY=1;entryDx=0;entryDy=0;exitPerimeter=0;" parent="1" source="iOZBX-VmQLaMs8w1UVqm-163" target="iOZBX-VmQLaMs8w1UVqm-171" edge="1">
          <mxGeometry relative="1" as="geometry" />
        </mxCell>
        <mxCell id="iOZBX-VmQLaMs8w1UVqm-171" value="project_task_name" style="ellipse;whiteSpace=wrap;html=1;align=center;strokeColor=#000000;" parent="1" vertex="1">
          <mxGeometry x="1310" y="240" width="130" height="50" as="geometry" />
        </mxCell>
        <mxCell id="iOZBX-VmQLaMs8w1UVqm-180" style="edgeStyle=none;rounded=0;orthogonalLoop=1;jettySize=auto;html=1;exitX=0.917;exitY=1;exitDx=0;exitDy=0;entryX=0;entryY=0;entryDx=0;entryDy=0;exitPerimeter=0;" parent="1" source="iOZBX-VmQLaMs8w1UVqm-163" target="iOZBX-VmQLaMs8w1UVqm-173" edge="1">
          <mxGeometry relative="1" as="geometry" />
        </mxCell>
        <mxCell id="iOZBX-VmQLaMs8w1UVqm-173" value="reports_to_id" style="ellipse;whiteSpace=wrap;html=1;align=center;strokeColor=#000000;" parent="1" vertex="1">
          <mxGeometry x="1350" y="420" width="100" height="40" as="geometry" />
        </mxCell>
        <mxCell id="iOZBX-VmQLaMs8w1UVqm-179" style="edgeStyle=none;rounded=0;orthogonalLoop=1;jettySize=auto;html=1;entryX=1;entryY=0;entryDx=0;entryDy=0;" parent="1" source="iOZBX-VmQLaMs8w1UVqm-163" target="iOZBX-VmQLaMs8w1UVqm-174" edge="1">
          <mxGeometry relative="1" as="geometry" />
        </mxCell>
        <mxCell id="iOZBX-VmQLaMs8w1UVqm-174" value="progress" style="ellipse;whiteSpace=wrap;html=1;align=center;strokeColor=#000000;" parent="1" vertex="1">
          <mxGeometry x="1040" y="430" width="100" height="40" as="geometry" />
        </mxCell>
        <mxCell id="iOZBX-VmQLaMs8w1UVqm-189" value="" style="edgeStyle=none;rounded=0;orthogonalLoop=1;jettySize=auto;html=1;" parent="1" source="iOZBX-VmQLaMs8w1UVqm-184" target="iOZBX-VmQLaMs8w1UVqm-188" edge="1">
          <mxGeometry relative="1" as="geometry" />
        </mxCell>
        <mxCell id="iOZBX-VmQLaMs8w1UVqm-184" value="give the tasks to associates" style="rhombus;whiteSpace=wrap;html=1;" parent="1" vertex="1">
          <mxGeometry x="1165" y="490" width="130" height="130" as="geometry" />
        </mxCell>
        <mxCell id="iOZBX-VmQLaMs8w1UVqm-188" value="associates" style="whiteSpace=wrap;html=1;" parent="1" vertex="1">
          <mxGeometry x="1170" y="735" width="120" height="60" as="geometry" />
        </mxCell>
        <mxCell id="iOZBX-VmQLaMs8w1UVqm-202" style="edgeStyle=none;rounded=0;orthogonalLoop=1;jettySize=auto;html=1;entryX=1;entryY=1;entryDx=0;entryDy=0;" parent="1" source="iOZBX-VmQLaMs8w1UVqm-188" target="iOZBX-VmQLaMs8w1UVqm-190" edge="1">
          <mxGeometry relative="1" as="geometry" />
        </mxCell>
        <mxCell id="iOZBX-VmQLaMs8w1UVqm-190" value="id" style="ellipse;whiteSpace=wrap;html=1;align=center;fontStyle=4;strokeColor=#000000;" parent="1" vertex="1">
          <mxGeometry x="1060" y="670" width="100" height="40" as="geometry" />
        </mxCell>
        <mxCell id="iOZBX-VmQLaMs8w1UVqm-201" style="edgeStyle=none;rounded=0;orthogonalLoop=1;jettySize=auto;html=1;exitX=0;exitY=0.5;exitDx=0;exitDy=0;entryX=1;entryY=0.5;entryDx=0;entryDy=0;" parent="1" source="iOZBX-VmQLaMs8w1UVqm-188" target="iOZBX-VmQLaMs8w1UVqm-191" edge="1">
          <mxGeometry relative="1" as="geometry" />
        </mxCell>
        <mxCell id="iOZBX-VmQLaMs8w1UVqm-191" value="name" style="ellipse;whiteSpace=wrap;html=1;align=center;strokeColor=#000000;" parent="1" vertex="1">
          <mxGeometry x="1030" y="770" width="100" height="40" as="geometry" />
        </mxCell>
        <mxCell id="iOZBX-VmQLaMs8w1UVqm-200" style="edgeStyle=none;rounded=0;orthogonalLoop=1;jettySize=auto;html=1;entryX=0.5;entryY=0;entryDx=0;entryDy=0;" parent="1" source="iOZBX-VmQLaMs8w1UVqm-188" target="iOZBX-VmQLaMs8w1UVqm-192" edge="1">
          <mxGeometry relative="1" as="geometry" />
        </mxCell>
        <mxCell id="iOZBX-VmQLaMs8w1UVqm-192" value="project_task_id" style="ellipse;whiteSpace=wrap;html=1;align=center;strokeColor=#000000;" parent="1" vertex="1">
          <mxGeometry x="1110" y="850" width="100" height="40" as="geometry" />
        </mxCell>
        <mxCell id="iOZBX-VmQLaMs8w1UVqm-198" style="edgeStyle=none;rounded=0;orthogonalLoop=1;jettySize=auto;html=1;exitX=1;exitY=0.5;exitDx=0;exitDy=0;entryX=0;entryY=0.5;entryDx=0;entryDy=0;" parent="1" source="iOZBX-VmQLaMs8w1UVqm-188" target="iOZBX-VmQLaMs8w1UVqm-194" edge="1">
          <mxGeometry relative="1" as="geometry" />
        </mxCell>
        <mxCell id="iOZBX-VmQLaMs8w1UVqm-194" value="mgr" style="ellipse;whiteSpace=wrap;html=1;align=center;strokeColor=#000000;" parent="1" vertex="1">
          <mxGeometry x="1340" y="780" width="100" height="40" as="geometry" />
        </mxCell>
        <mxCell id="iOZBX-VmQLaMs8w1UVqm-197" style="edgeStyle=none;rounded=0;orthogonalLoop=1;jettySize=auto;html=1;entryX=0;entryY=0.5;entryDx=0;entryDy=0;" parent="1" source="iOZBX-VmQLaMs8w1UVqm-188" target="iOZBX-VmQLaMs8w1UVqm-195" edge="1">
          <mxGeometry relative="1" as="geometry" />
        </mxCell>
        <mxCell id="iOZBX-VmQLaMs8w1UVqm-195" value="project_task_name" style="ellipse;whiteSpace=wrap;html=1;align=center;strokeColor=#000000;" parent="1" vertex="1">
          <mxGeometry x="1325" y="700" width="125" height="60" as="geometry" />
        </mxCell>
        <mxCell id="iOZBX-VmQLaMs8w1UVqm-199" style="edgeStyle=none;rounded=0;orthogonalLoop=1;jettySize=auto;html=1;exitX=0.5;exitY=0;exitDx=0;exitDy=0;entryX=0.5;entryY=0;entryDx=0;entryDy=0;" parent="1" target="iOZBX-VmQLaMs8w1UVqm-196" edge="1">
          <mxGeometry relative="1" as="geometry">
            <mxPoint x="1260" y="800" as="sourcePoint" />
          </mxGeometry>
        </mxCell>
        <mxCell id="iOZBX-VmQLaMs8w1UVqm-196" value="progress" style="ellipse;whiteSpace=wrap;html=1;align=center;strokeColor=#000000;" parent="1" vertex="1">
          <mxGeometry x="1260" y="860" width="100" height="40" as="geometry" />
        </mxCell>
        <mxCell id="iOZBX-VmQLaMs8w1UVqm-203" value="priority" style="ellipse;whiteSpace=wrap;html=1;align=center;" parent="1" vertex="1">
          <mxGeometry x="364" y="-190" width="100" height="40" as="geometry" />
        </mxCell>
        <mxCell id="iOZBX-VmQLaMs8w1UVqm-207" style="edgeStyle=none;rounded=0;orthogonalLoop=1;jettySize=auto;html=1;entryX=1;entryY=0;entryDx=0;entryDy=0;" parent="1" source="iOZBX-VmQLaMs8w1UVqm-152" target="iOZBX-VmQLaMs8w1UVqm-206" edge="1">
          <mxGeometry relative="1" as="geometry" />
        </mxCell>
        <mxCell id="iOZBX-VmQLaMs8w1UVqm-206" value="priority" style="ellipse;whiteSpace=wrap;html=1;align=center;" parent="1" vertex="1">
          <mxGeometry x="460" y="300" width="100" height="40" as="geometry" />
        </mxCell>
      </root>
    </mxGraphModel>
  </diagram>
</mxfile>
>>>>>>> 5c9595799ec878b930ab138982ace25b35e76da3
